<?xml version="1.0" ?><!DOCTYPE svg  PUBLIC '-//W3C//DTD SVG 1.1//EN'  'http://www.w3.org/Graphics/SVG/1.1/DTD/svg11.dtd'><svg enable-background="new 0 0 512 512" height="512px" id="Layer_1" version="1.1" viewBox="0 0 512 512" width="512px" xml:space="preserve" xmlns="http://www.w3.org/2000/svg" xmlns:xlink="http://www.w3.org/1999/xlink"><path d="M493.271,442.879c0,34.172-27.701,61.873-61.873,61.873H81.655c-34.171,0-61.873-27.701-61.873-61.873  V93.135c0-34.171,27.702-61.873,61.873-61.873h349.743c34.172,0,61.873,27.702,61.873,61.873V442.879z" fill="#1D4E77"/><path d="M493.271,418.135c0,34.172-27.701,61.873-61.873,61.873H81.655c-34.171,0-61.873-27.701-61.873-61.873  V68.391c0-34.171,27.702-61.872,61.873-61.872h349.743c34.172,0,61.873,27.701,61.873,61.872V418.135z" fill="#3274D2"/><path d="M493.271,202.093c-0.202-0.205-0.407-0.408-0.623-0.6c-1.055-0.935-2.02-1.972-3.044-2.95  c-2.178-2.073-4.222-4.315-6.377-6.421c-4.241-4.146-8.285-8.503-12.573-12.597c-4.135-3.948-8.053-8.148-12.164-12.146  c-4.262-4.145-8.394-8.427-12.601-12.624c-4.039-4.03-8.025-8.138-12.134-12.119c-2.206-2.137-4.262-4.422-6.488-6.537  c-2.098-1.991-4.135-4.034-6.146-6.11c-1.893-1.953-3.806-3.912-5.794-5.769c-2.174-2.031-4.165-4.259-6.308-6.328  c-2.208-2.134-4.275-4.408-6.486-6.54c-2.161-2.08-4.211-4.265-6.367-6.348c-0.965-0.933-1.939-1.771-3.268-2.114  c-1.357-0.351-2.799-0.268-4.189-0.268c-3.25,0-6.502,0-9.752,0c-6.588,0-13.174,0-19.761,0c-13.258,0-26.515,0-39.771,0  c-26.437,0-52.872,0-79.309,0c-26.467,0-52.934,0-79.401,0c-6.582,0-13.165,0-19.747,0c-3.281,0-6.561,0-9.842,0  c-3.189,0-6.482-0.238-9.66,0.022c-2.151,0.177-4.117,1.46-5.028,3.436c-0.493,1.071-0.554,2.167-0.554,3.327  c0,1.675,0,3.352,0,5.027c0,6.633,0,13.265,0,19.897c0,26.482,0,52.965,0,79.449c0,26.588,0,53.176,0,79.765  c0,26.433,0,52.867,0,79.301c0,2.746-0.647,6.343,1.194,8.643c1.813,2.264,4.062,4.18,6.073,6.262  c4.035,4.178,8.217,8.226,12.283,12.359c1.953,1.984,4,3.862,5.924,5.887c2.114,2.227,4.4,4.283,6.536,6.488  c4.052,4.183,8.301,8.17,12.307,12.383c0.905,0.951,1.887,1.824,2.813,2.752c1.036,1.039,2.089,2.037,3.093,3.11  c2.097,2.242,4.391,4.29,6.532,6.491c4.064,4.178,8.397,8.117,12.334,12.402c0.893,0.971,1.904,1.811,2.812,2.762  c1.002,1.051,2.087,2.006,3.072,3.076c2.079,2.26,4.38,4.301,6.525,6.496c2.131,2.18,4.388,4.252,6.497,6.445  c1.931,2.012,4.029,3.895,5.873,5.975c1.767,1.994,3.87,3.668,5.68,5.629h215.966c34.172,0,61.873-27.701,61.873-61.873V202.093z" fill="#2A649E"/><path d="M391.285,102.624H121.762c-3.25,0-5.877,2.627-5.877,5.874v269.526c0,3.244,2.627,5.877,5.877,5.877h269.523  c3.25,0,5.883-2.633,5.883-5.877V108.497C397.168,105.25,394.535,102.624,391.285,102.624z M256.531,372.148V243.26H127.646V114.387  h128.885V243.26h128.873v128.888H256.531z" fill="#FFFFFF"/></svg>