<?xml version="1.0" ?><!DOCTYPE svg  PUBLIC '-//W3C//DTD SVG 1.1//EN'  'http://www.w3.org/Graphics/SVG/1.1/DTD/svg11.dtd'><svg enable-background="new 0 0 512 512" height="512px" id="Layer_1" version="1.1" viewBox="0 0 512 512" width="512px" xml:space="preserve" xmlns="http://www.w3.org/2000/svg" xmlns:xlink="http://www.w3.org/1999/xlink"><path d="M492.924,442.804c0,34.171-27.702,61.872-61.873,61.872H81.308c-34.171,0-61.874-27.701-61.874-61.872V93.06  c0-34.172,27.703-61.873,61.874-61.873h349.743c34.171,0,61.873,27.701,61.873,61.873V442.804z" fill="#A21116"/><path d="M492.924,418.06c0,34.172-27.702,61.872-61.873,61.872H81.308c-34.171,0-61.874-27.7-61.874-61.872V68.315  c0-34.171,27.703-61.872,61.874-61.872h349.743c34.171,0,61.873,27.701,61.873,61.872V418.06z" fill="#CA2127"/><g><g><path d="M170.476,266.685C170.162,266.381,170.782,266.994,170.476,266.685L170.476,266.685z" fill="#791417"/><path d="M492.924,418.06V274.755c-6.597-6.673-15.631-15.618-18.203-18.175c-3.865-3.841-7.718-7.696-11.56-11.56    c-15.368-15.457-30.868-30.784-46.239-46.239s-30.869-30.784-46.239-46.24c-7.685-7.727-15.435-15.391-23.119-23.119    c-3.282-3.3-6.546-6.611-10.095-9.627c-3.343-2.842-6.869-5.468-10.547-7.863c-16-10.418-34.658-16.227-53.644-17.684    c-18.544-1.423-37.698,0.692-55.387,6.485c-14.783,4.841-28.644,12.455-40.405,22.663c-10.525,9.136-19.301,20.265-25.657,32.673    c-5.833,11.389-9.653,23.863-10.846,36.618c-0.776,8.292-0.43,16.729,0.864,24.95c1.478,9.392,4.342,18.666,9.144,26.907    c2.243,3.849,4.91,7.455,8.004,10.661c3.75,3.885,7.592,7.73,11.48,11.479c3.825,3.882,7.715,7.698,11.557,11.562    c3.84,3.862,7.642,7.777,11.563,11.558c0.917,0.931,1.833,1.868,2.774,2.774c0.435,0.441,0.876,0.875,1.309,1.318    c0.31,0.318,0.414,0.279,0.303,0.749c-0.112,0.476-0.225,0.952-0.337,1.429c-0.673,2.85-1.345,5.698-2.018,8.547    c-1.108,4.697-2.218,9.393-3.326,14.09c-0.81,3.429-1.682,6.851-2.362,10.309c-0.993,5.049-1.613,10.166-1.978,15.297    c-0.669,9.412-0.499,18.879,0.204,28.283c0.423,5.654,1.051,11.291,1.875,16.902c0.129,0.879,0.893,2.467,0.893,2.467    l87.963,87.963h152.154C465.222,479.932,492.924,452.231,492.924,418.06z" fill="#791417"/></g></g><path d="M263.184,93.865c-81.5,0-122.594,58.43-122.594,107.166c0,29.5,11.163,55.746,35.119,65.516  c3.93,1.623,7.452,0.06,8.594-4.287c0.791-3.001,2.665-10.593,3.504-13.768c1.142-4.3,0.695-5.799-2.473-9.559  c-6.907-8.143-11.331-18.688-11.331-33.638c0-43.344,32.438-82.156,84.458-82.156c46.068,0,71.377,28.149,71.377,65.728  c0,49.467-21.893,91.213-54.381,91.213c-17.947,0-31.371-14.834-27.077-33.041c5.155-21.732,15.144-45.179,15.144-60.878  c0-14.036-7.547-25.746-23.134-25.746c-18.344,0-33.082,18.979-33.082,44.398c0,16.19,5.472,27.147,5.472,27.147  s-18.776,79.542-22.066,93.473c-6.551,27.745-0.988,61.746-0.511,65.171c0.276,2.046,2.896,2.54,4.082,0.999  c1.682-2.208,23.546-29.181,30.96-56.141c2.108-7.627,12.067-47.147,12.067-47.147c5.966,11.378,23.382,21.373,41.905,21.373  c55.138,0,92.553-50.266,92.553-117.551C371.777,141.252,328.677,93.865,263.184,93.865z" fill="#FFFFFF"/></svg>