<?xml version="1.0" ?><!DOCTYPE svg  PUBLIC '-//W3C//DTD SVG 1.1//EN'  'http://www.w3.org/Graphics/SVG/1.1/DTD/svg11.dtd'><svg enable-background="new 0 0 512 512" height="512px" id="Layer_1" version="1.1" viewBox="0 0 512 512" width="512px" xml:space="preserve" xmlns="http://www.w3.org/2000/svg" xmlns:xlink="http://www.w3.org/1999/xlink"><path d="M492.531,442.732c0,34.171-27.702,61.872-61.873,61.872H80.916c-34.171,0-61.874-27.701-61.874-61.872  V92.987c0-34.171,27.703-61.873,61.874-61.873h349.743c34.171,0,61.873,27.701,61.873,61.873V442.732z" fill="#0C5675"/><path d="M492.531,417.988c0,34.172-27.702,61.873-61.873,61.873H80.916c-34.171,0-61.874-27.701-61.874-61.873  V68.243c0-34.17,27.703-61.872,61.874-61.872h349.743c34.171,0,61.873,27.702,61.873,61.872V417.988z" fill="#00ABF1"/><path d="M492.531,417.988v-58.166c-12.528-12.415-28.029-27.635-33.247-33.154c-8.093-8.561-16.907-16.439-25-25  s-16.907-16.439-25-25s-16.907-16.439-25-25c-8.093-8.561-16.907-16.44-25-25c-2.023-2.14-4.171-4.18-6.255-6.263  c-2.08-2.074-4.107-4.223-6.246-6.237c-4.27-4.024-8.186-8.42-12.456-12.444c-3.753-3.536-8.325-6.114-13.366-7.264  c-2.678-0.612-5.389-0.75-8.123-0.75c-5.566,0-11.132,0-16.697,0c-2.867,0-5.734,0-8.601,0c-0.89,0-1.78,0-2.671,0  c-0.469,0-0.825,0.108-1.164-0.219c-6.797-6.542-13.193-13.502-20.016-20.016c-6.818-6.509-13.183-13.492-20-20  c-6.818-6.509-13.183-13.492-20-20c-3.467-3.31-6.639-6.953-10.215-10.147c-3.794-3.391-8.342-5.861-13.307-7.021  c-10.077-2.355-20.975,0.204-28.722,7.094c-6.973,6.204-10.677,14.768-10.677,24.075c0,5.257,0,10.513,0,15.77  c0,11.478,0,22.956,0,34.434c0,13.075,0,26.148,0,39.223c0,10.043,0,20.087,0,30.131c0,8.174-0.049,16.296,1.239,24.408  c3.277,20.643,13.769,39.284,28.936,53.568c8.576,8.076,16.424,16.924,25,25s16.424,16.924,25,25s16.424,16.924,25,25  c8.575,8.076,16.424,16.924,25,25c8.575,8.076,16.424,16.924,25,25c2.146,2.023,4.174,4.186,6.271,6.261  c1.192,1.21,2.417,2.396,3.628,3.591h104.815C464.829,479.861,492.531,452.16,492.531,417.988z" fill="#007ECB"/><path d="M318.931,306.922h-62.99c-8.757,0-16.204-3.064-22.32-9.217  c-6.144-6.161-9.183-13.605-9.183-22.406v-22.415h89.752c8.097,0,15.067-2.913,20.858-8.692c5.788-5.823,8.695-12.788,8.695-20.894  c0-8.131-2.907-15.086-8.715-20.894c-5.807-5.791-12.797-8.695-20.928-8.695h-89.663V147.4c0-8.765-3.124-16.268-9.333-22.52  c-6.178-6.259-13.652-9.401-22.335-9.401c-8.927,0-16.524,3.093-22.703,9.217c-6.201,6.144-9.298,13.714-9.298,22.729V275.32  c0,26.306,9.298,48.777,27.903,67.428c18.62,18.686,41.068,28.004,67.309,28.004h62.971c8.745,0,16.25-3.14,22.49-9.402  c6.247-6.234,9.364-13.751,9.364-22.508c0-8.756-3.117-16.264-9.364-22.523C335.2,310.073,327.68,306.922,318.931,306.922z" fill="#FFFFFF" id="Twitter_3_"/></svg>