<?xml version="1.0" ?><!DOCTYPE svg  PUBLIC '-//W3C//DTD SVG 1.1//EN'  'http://www.w3.org/Graphics/SVG/1.1/DTD/svg11.dtd'><svg enable-background="new 0 0 512 512" height="512px" id="Layer_1" version="1.1" viewBox="0 0 512 512" width="512px" xml:space="preserve" xmlns="http://www.w3.org/2000/svg" xmlns:xlink="http://www.w3.org/1999/xlink"><path d="M492.368,442.732c0,34.171-27.702,61.872-61.873,61.872H80.752c-34.171,0-61.874-27.701-61.874-61.872  V92.987c0-34.171,27.703-61.873,61.874-61.873h349.743c34.171,0,61.873,27.701,61.873,61.873V442.732z" fill="#920E00"/><path d="M492.368,417.988c0,34.172-27.702,61.873-61.873,61.873H80.752c-34.171,0-61.874-27.701-61.874-61.873  V68.243c0-34.171,27.703-61.872,61.874-61.872h349.743c34.171,0,61.873,27.701,61.873,61.872V417.988z" fill="#CF2200"/><path d="M492.368,417.988V249.401c-12.481-12.443-25.122-24.73-37.438-37.334c-16.473-16.857-33.528-33.143-50-50  c-2.059-2.107-4.171-4.165-6.249-6.252c-1.937-1.945-3.824-3.989-5.927-5.757c-3.845-3.23-8.443-5.389-13.334-6.48  c-3.105-0.692-6.288-0.925-9.455-1.157c-3.692-0.271-7.389-0.482-11.086-0.678c-22.141-1.176-44.318-1.887-66.485-2.308  c-18.46-0.351-36.927-0.333-55.388-0.148c-18.64,0.186-37.279,0.553-55.909,1.175c-13.544,0.453-27.122,0.916-40.626,2.089  c-3.195,0.278-6.524,0.46-9.644,1.259c-9.445,2.424-16.746,9.385-21.315,17.818c-5.045,9.312-6.584,19.809-7.681,30.199  c-1.231,11.68-1.962,23.411-2.309,35.149c-0.708,23.984,0.023,48.134,2.829,71.975c1.138,9.667,3.235,19.49,8.356,27.897  c2.675,4.393,6.194,8.027,9.904,11.559c4.055,4.265,8.33,8.342,12.491,12.504c16.667,16.666,33.333,33.333,50,50  c16.667,16.666,33.333,33.333,50,50c8.333,8.333,16.667,16.666,25,25c1.314,1.314,2.624,2.635,3.938,3.951h168.455  C464.666,479.861,492.368,452.16,492.368,417.988z" fill="#B21500"/><path d="M410.332,201.422c-1.846-22.1-3.31-29.275-7.868-38.486c-6.033-12.201-14.756-18.635-27.178-20.049  c-9.61-1.096-45.749-2.635-79.2-3.379c-57.903-1.285-153.105,1.189-165.26,4.299c-5.615,1.441-9.832,3.883-14.219,8.244  c-7.682,7.65-12.261,18.617-14.099,33.785c-4.205,34.643-4.295,76.49-0.242,112.387c1.738,15.438,5.327,25.471,12.06,33.738  c4.205,5.156,11.444,9.543,17.918,10.852c4.55,0.916,27.293,2.191,60.432,3.383c4.929,0.176,18,0.482,29.04,0.68  c23.002,0.41,65.303,0.164,89.484-0.512c16.265-0.455,45.922-1.66,51.467-2.088c1.562-0.119,5.175-0.352,8.027-0.514  c9.603-0.541,15.706-2.551,21.44-7.059c7.424-5.83,13.17-16.607,15.599-29.242c2.298-11.957,3.84-33.254,4.147-57.43  C412.136,229.83,411.791,218.928,410.332,201.422z M215.164,288.041v-89.844l80.918,44.918L215.164,288.041z" fill="#FFFFFF"/></svg>